<svg width="57" height="57" viewBox="0 0 57 57" fill="none" xmlns="http://www.w3.org/2000/svg">
<path fill-rule="evenodd" clip-rule="evenodd" d="M10.6875 8.90625C9.70375 8.90625 8.90625 9.70375 8.90625 10.6875V46.3125C8.90625 47.2963 9.70373 48.0938 10.6875 48.0938H46.3125C47.2963 48.0938 48.0938 47.2963 48.0938 46.3125V16.4566L40.0069 8.90625H10.6875ZM5.34375 10.6875C5.34375 7.73623 7.73623 5.34375 10.6875 5.34375H40.7092C41.1604 5.34375 41.5949 5.51504 41.9248 5.82302L51.0906 14.3807C51.4514 14.7176 51.6562 15.1891 51.6562 15.6827V46.3125C51.6562 49.2638 49.2638 51.6562 46.3125 51.6562H10.6875C7.73625 51.6562 5.34375 49.2638 5.34375 46.3125V10.6875Z" fill="white"/>
<path fill-rule="evenodd" clip-rule="evenodd" d="M14.8438 7.125C14.8438 6.14124 15.6412 5.34375 16.625 5.34375H28.5099C28.9826 5.34375 29.436 5.53169 29.7701 5.86617C30.1042 6.20066 30.2916 6.65424 30.2911 7.127L30.2812 15.8942C30.2812 15.8946 30.2812 15.8951 30.2812 15.8955C30.2812 15.8958 30.2812 15.896 30.2812 15.8962C30.2804 16.9461 29.5952 17.6145 29.0857 17.928C28.5472 18.2594 27.9158 18.4062 27.3125 18.4062H17.8125C17.2092 18.4062 16.5778 18.2594 16.0392 17.928C15.5295 17.6143 14.8438 16.9452 14.8438 15.8942V7.125ZM18.4062 8.90625V14.8438H26.7199L26.7266 8.90625H18.4062ZM27.336 14.8419C27.336 14.8421 27.3336 14.8426 27.3288 14.8431C27.3335 14.842 27.3359 14.8418 27.336 14.8419ZM17.789 14.8419C17.7891 14.8418 17.7915 14.842 17.7962 14.8431C17.7914 14.8426 17.789 14.8421 17.789 14.8419Z" fill="white"/>
<path fill-rule="evenodd" clip-rule="evenodd" d="M8.90625 7.125C8.90625 6.14124 9.70374 5.34375 10.6875 5.34375H40.7092C41.6929 5.34375 42.4904 6.14124 42.4904 7.125C42.4904 8.10876 41.6929 8.90625 40.7092 8.90625H10.6875C9.70374 8.90625 8.90625 8.10876 8.90625 7.125Z" fill="white"/>
<path fill-rule="evenodd" clip-rule="evenodd" d="M14.8438 30.875C14.8438 29.8912 15.6412 29.0938 16.625 29.0938H40.375C41.3588 29.0938 42.1562 29.8912 42.1562 30.875C42.1562 31.8588 41.3588 32.6562 40.375 32.6562H16.625C15.6412 32.6562 14.8438 31.8588 14.8438 30.875Z" fill="white"/>
<path fill-rule="evenodd" clip-rule="evenodd" d="M14.8438 40.375C14.8438 39.3912 15.6412 38.5938 16.625 38.5938H28.5099C29.4936 38.5938 30.2911 39.3912 30.2911 40.375C30.2911 41.3588 29.4936 42.1562 28.5099 42.1562H16.625C15.6412 42.1562 14.8438 41.3588 14.8438 40.375Z" fill="white"/>
</svg>
