<svg width="57" height="57" viewBox="0 0 57 57" fill="none" xmlns="http://www.w3.org/2000/svg">
<path fill-rule="evenodd" clip-rule="evenodd" d="M18.4062 17.8125C18.4062 12.2379 22.9254 7.71875 28.5 7.71875C34.0746 7.71875 38.5938 12.2379 38.5938 17.8125C38.5938 23.3871 34.0746 27.9062 28.5 27.9062C22.9254 27.9062 18.4062 23.3871 18.4062 17.8125ZM28.5 11.2812C24.8929 11.2812 21.9688 14.2054 21.9688 17.8125C21.9688 21.4196 24.8929 24.3438 28.5 24.3438C32.1071 24.3438 35.0312 21.4196 35.0312 17.8125C35.0312 14.2054 32.1071 11.2812 28.5 11.2812Z" fill="black"/>
<path fill-rule="evenodd" clip-rule="evenodd" d="M19 35.0312C16.0487 35.0312 13.6562 37.4237 13.6562 40.375V43.1972C13.6562 43.2401 13.6874 43.2768 13.7298 43.2837C23.5118 44.8808 33.4882 44.8808 43.2702 43.2837C43.3126 43.2768 43.3438 43.2401 43.3438 43.1972V40.375C43.3438 37.4237 40.9513 35.0312 38 35.0312H37.1904C37.1278 35.0312 37.0656 35.0411 37.0061 35.0606L34.9505 35.7318C30.7591 37.1004 26.2409 37.1004 22.0495 35.7318L19.9939 35.0606C19.9344 35.0411 19.8722 35.0312 19.8096 35.0312H19ZM10.0938 40.375C10.0938 35.4562 14.0812 31.4688 19 31.4688H19.8096C20.2477 31.4688 20.6831 31.538 21.0997 31.674L23.1553 32.3453C26.6282 33.4793 30.3718 33.4793 33.8447 32.3453L35.9003 31.674C36.3169 31.538 36.7523 31.4688 37.1904 31.4688H38C42.9188 31.4688 46.9062 35.4562 46.9062 40.375V43.1972C46.9062 44.9861 45.6098 46.5114 43.8442 46.7997C33.682 48.4588 23.318 48.4588 13.1558 46.7997C11.3902 46.5114 10.0938 44.9861 10.0938 43.1972V40.375Z" fill="black"/>
</svg>
