<svg width="5" height="5" viewBox="0 0 65 65" fill="none" xmlns="http://www.w3.org/2000/svg">
  <path fill-rule="evenodd" clip-rule="evenodd" d="M0.520813 4.99992C0.520813 2.52614 2.5262 0.520752 4.99998 0.520752C7.47376 0.520752 9.47915 2.52614 9.47915 4.99992C9.47915 7.4737 7.47376 9.47909 4.99998 9.47909C2.5262 9.47909 0.520813 7.4737 0.520813 4.99992ZM4.99998 1.14575C2.87138 1.14575 1.14581 2.87132 1.14581 4.99992C1.14581 7.12852 2.87138 8.85409 4.99998 8.85409C7.12858 8.85409 8.85415 7.12852 8.85415 4.99992C8.85415 2.87132 7.12858 1.14575 4.99998 1.14575Z" fill="#1C1B1E" />
  <path fill-rule="evenodd" clip-rule="evenodd" d="M6.39946 3.60056C6.5215 3.7226 6.5215 3.92047 6.39946 4.0425L4.04244 6.39952C3.9204 6.52156 3.72254 6.52156 3.6005 6.39952C3.47846 6.27749 3.47846 6.07962 3.6005 5.95758L5.95752 3.60056C6.07956 3.47852 6.27743 3.47852 6.39946 3.60056Z" fill="#1C1B1E" />
  <path fill-rule="evenodd" clip-rule="evenodd" d="M3.6005 3.60056C3.72254 3.47852 3.9204 3.47852 4.04244 3.60056L6.39946 5.95758C6.5215 6.07962 6.5215 6.27749 6.39946 6.39952C6.27743 6.52156 6.07956 6.52156 5.95752 6.39952L3.6005 4.0425C3.47846 3.92047 3.47846 3.7226 3.6005 3.60056Z" fill="#1C1B1E" />
</svg>
