<svg width="57" height="57" viewBox="0 0 57 57" fill="none" xmlns="http://www.w3.org/2000/svg">
<path fill-rule="evenodd" clip-rule="evenodd" d="M9.5 8.90625C9.17208 8.90625 8.90625 9.17208 8.90625 9.5V47.5C8.90625 47.8279 9.17206 48.0938 9.5 48.0938H47.5C47.828 48.0938 48.0938 47.828 48.0938 47.5V30.875C48.0938 29.8912 48.8912 29.0938 49.875 29.0938C50.8588 29.0938 51.6562 29.8912 51.6562 30.875V47.5C51.6562 49.7955 49.7955 51.6562 47.5 51.6562H9.5C7.20458 51.6562 5.34375 49.7955 5.34375 47.5V9.5C5.34375 7.20457 7.20457 5.34375 9.5 5.34375H26.125C27.1088 5.34375 27.9062 6.14124 27.9062 7.125C27.9062 8.10876 27.1088 8.90625 26.125 8.90625H9.5Z" fill="white"/>
<path fill-rule="evenodd" clip-rule="evenodd" d="M41.2001 5.34375C41.6728 5.34366 42.1261 5.53144 42.4602 5.86574L51.1348 14.5441C51.8301 15.2397 51.8301 16.3671 51.1348 17.0626L26.574 41.6343C26.2399 41.9685 25.7867 42.1562 25.3142 42.1562H16.625C15.6412 42.1562 14.8438 41.3588 14.8438 40.375V31.7299C14.8438 31.2578 15.0311 30.8051 15.3647 30.4711L39.9401 5.86622C40.2742 5.53179 40.7274 5.34384 41.2001 5.34375ZM41.2009 9.6451L18.4062 32.4671V38.5938H24.5761L47.3565 15.8034L41.2009 9.6451Z" fill="white"/>
</svg>
