<svg width="57" height="57" viewBox="0 0 57 57" fill="none" xmlns="http://www.w3.org/2000/svg">
<path fill-rule="evenodd" clip-rule="evenodd" d="M27.2405 3.49047C27.9361 2.79484 29.0639 2.79484 29.7595 3.49047L36.3628 10.0938H45.125C46.1088 10.0938 46.9062 10.8912 46.9062 11.875V20.6372L53.5095 27.2405C54.2052 27.9361 54.2052 29.0639 53.5095 29.7595L46.9062 36.3628V45.125C46.9062 46.1088 46.1088 46.9062 45.125 46.9062H36.3628L29.7595 53.5095C29.0639 54.2052 27.9361 54.2052 27.2405 53.5095L20.6372 46.9062H11.875C10.8912 46.9062 10.0938 46.1088 10.0938 45.125V36.3628L3.49047 29.7595C2.79484 29.0639 2.79484 27.9361 3.49047 27.2405L10.0938 20.6372V11.875C10.0938 10.8912 10.8912 10.0938 11.875 10.0938H20.6372L27.2405 3.49047ZM28.5 7.26907L22.6345 13.1345C22.3005 13.4686 21.8474 13.6562 21.375 13.6562H13.6562V21.375C13.6562 21.8474 13.4686 22.3005 13.1345 22.6345L7.26907 28.5L13.1345 34.3655C13.4686 34.6995 13.6562 35.1526 13.6562 35.625V43.3438H21.375C21.8474 43.3438 22.3005 43.5314 22.6345 43.8655L28.5 49.7309L34.3655 43.8655C34.6995 43.5314 35.1526 43.3438 35.625 43.3438H43.3438V35.625C43.3438 35.1526 43.5314 34.6995 43.8655 34.3655L49.7309 28.5L43.8655 22.6345C43.5314 22.3005 43.3438 21.8474 43.3438 21.375V13.6562H35.625C35.1526 13.6562 34.6995 13.4686 34.3655 13.1345L28.5 7.26907Z" fill="white"/>
<path fill-rule="evenodd" clip-rule="evenodd" d="M28.5 23.1562C25.5487 23.1562 23.1562 25.5487 23.1562 28.5C23.1562 31.4513 25.5487 33.8438 28.5 33.8438C31.4513 33.8438 33.8438 31.4513 33.8438 28.5C33.8438 25.5487 31.4513 23.1562 28.5 23.1562ZM19.5938 28.5C19.5938 23.5812 23.5812 19.5938 28.5 19.5938C33.4188 19.5938 37.4062 23.5812 37.4062 28.5C37.4062 33.4188 33.4188 37.4062 28.5 37.4062C23.5812 37.4062 19.5938 33.4188 19.5938 28.5Z" fill="white"/>
</svg>
