<svg width="57" height="57" viewBox="0 0 50 35" fill="none" xmlns="http://www.w3.org/2000/svg">
  <path d="M17.9637 0C20.5772 0 22.694 1.6164 22.694 3.6108L22.6724 3.9042C24.7556 4.5378 26.7691 5.589 28.5547 6.9822C30.6234 8.5896 31.833 10.7208 32.205 13.455V23.3154L35.0633 27.0918C36.0233 28.2906 36.3305 29.295 35.5817 30.1644C34.8953 30.9582 33.6689 31.2354 32.0058 31.2138H25.5979C24.8492 33.948 21.6764 36 17.8797 36C14.0782 36 10.9079 33.948 10.1615 31.2156H3.06726L2.93286 31.2102C1.4281 31.113 0.307325 30.5676 0.0553308 29.5182C-0.115065 28.8036 0.110529 28.0368 0.698515 27.1224L3.63845 23.1984L3.64565 13.347C3.90244 11.169 4.98961 9.1404 6.88077 7.2792C8.48153 5.7042 10.7687 4.545 13.2502 3.8772C13.2404 3.78859 13.2356 3.69971 13.2358 3.6108C13.2358 1.6164 15.3526 0 17.9637 0ZM22.3268 31.2156H13.4326C14.0926 32.6016 15.8326 33.5916 17.8797 33.5916C19.9245 33.5916 21.6668 32.6016 22.3268 31.2156ZM18.1965 5.6232C14.947 5.6232 11.3735 6.7842 9.37191 8.7552C7.84075 10.26 6.98637 11.8548 6.79197 13.4532V23.5152C6.79197 23.7258 6.71997 23.9328 6.58318 24.1146L3.48485 28.2474C3.36477 28.4265 3.26832 28.614 3.19686 28.8072H32.0298C32.3202 28.8108 32.541 28.8018 32.6922 28.7982C32.5916 28.6345 32.4787 28.4752 32.3538 28.3212L29.265 24.2406C29.1262 24.0567 29.0535 23.8489 29.0539 23.6376L29.0611 13.5828C28.7707 11.4912 27.8467 9.8676 26.3035 8.6652C23.8076 6.7212 20.8748 5.6232 18.1965 5.6232ZM17.9637 2.4066C17.6136 2.40841 17.2741 2.49719 16.9984 2.65905C16.7227 2.82091 16.5262 3.04672 16.4397 3.3012C17.0301 3.2454 17.6157 3.2166 18.1965 3.2166C18.6213 3.2166 19.0509 3.2346 19.4805 3.2742C19.3877 3.02563 19.1894 2.80649 18.9157 2.64995C18.6421 2.49341 18.3079 2.40799 17.9637 2.4066Z" fill="black" />
</svg>
